<?xml version="1.0" encoding="UTF-8"?>
<svg version="1.1" xmlns="http://www.w3.org/2000/svg" width="500" height="500">
<path d="M0 0 C6.05135781 5.09245034 11.67683022 10.58188252 17.1875 16.25 C18.89252684 18.07107096 18.89252684 18.07107096 21 19 C21 19.66 21 20.32 21 21 C21.515625 21.2475 22.03125 21.495 22.5625 21.75 C25.18406477 23.09439219 27.69567204 24.57807521 30.21875 26.09765625 C34.00488042 28.01563021 37.65038247 28.1394471 41.84765625 28.2109375 C69.73809698 28.84016236 94.20269183 30.82177534 115.375 50.9375 C130.54307143 67.09548767 135.57003655 86.26453879 135.625 107.8125 C135.74259214 124.27367072 136.55414993 135.59142847 148.80859375 147.875 C150.31432836 149.35647253 151.82884615 150.82831046 153.34716797 152.296875 C157.20681179 156.07735289 160.66424112 160.06404753 164 164.3125 C164.44448486 164.87493408 164.88896973 165.43736816 165.34692383 166.0168457 C169.93659462 171.97421209 173.21654023 178.03964477 175.6875 185.1875 C176.31205078 186.97220703 176.31205078 186.97220703 176.94921875 188.79296875 C182.35842031 205.3020932 180.57111871 225.45486491 173 241 C168.12197767 250.47730053 161.09131639 258.04898799 153.48828125 265.421875 C142.31163693 276.27613021 136.11572551 284.63290737 135.7875061 300.7578125 C135.77899628 301.44875 135.77048645 302.1396875 135.76171875 302.8515625 C135.75280609 303.55958008 135.74389343 304.26759766 135.73471069 304.99707031 C135.70537381 307.93683102 135.68507958 310.87600522 135.69458008 313.81591797 C135.72105842 335.31151775 128.49717009 353.81870803 113.55810547 369.46240234 C97.52450918 385.28496414 75.65308139 389.5856356 53.93359375 390.19921875 C52.87962402 390.23055908 51.8256543 390.26189941 50.73974609 390.29418945 C48.67666169 390.34666225 46.61302133 390.38138525 44.54931641 390.39526367 C35.8539192 390.59080471 27.85923621 392.44465562 21.5 398.75 C18.16806723 402 18.16806723 402 16 402 C15.67 402.99 15.34 403.98 15 405 C14.34 405 13.68 405 13 405 C12.78214844 405.55042969 12.56429688 406.10085938 12.33984375 406.66796875 C4.33666867 420.59769331 -13.39893277 428.45061484 -28 433 C-31.06037726 433.73837673 -33.85727347 433.97501807 -37 434 C-38.21300781 434.03738281 -39.42601562 434.07476562 -40.67578125 434.11328125 C-64.63650887 434.66208794 -81.62898646 426.7493874 -99.26953125 410.84765625 C-101 409 -101 409 -101 407 C-101.99 406.67 -102.98 406.34 -104 406 C-104 405.34 -104 404.68 -104 404 C-104.66 404 -105.32 404 -106 404 C-106.57878906 403.25234375 -107.15757812 402.5046875 -107.75390625 401.734375 C-110.24078355 398.7068722 -112.54626547 397.18296092 -115.9375 395.25 C-117.46697266 394.36054687 -117.46697266 394.36054687 -119.02734375 393.453125 C-123.28470419 391.37199742 -127.22298983 390.88950369 -131.921875 390.75390625 C-132.85652588 390.72256592 -133.79117676 390.69122559 -134.75415039 390.65893555 C-135.74278076 390.62711182 -136.73141113 390.59528809 -137.75 390.5625 C-164.32254619 389.51933262 -186.62227668 385.5492076 -206 366 C-206.66773438 365.36578125 -207.33546875 364.7315625 -208.0234375 364.078125 C-223.75830516 347.98726486 -225.12544952 325.04017106 -225.4296875 303.88476562 C-225.86629214 286.42967599 -231.05943708 277.74831156 -243.23266602 265.90063477 C-258.27474017 251.2181321 -268.83235488 234.41423546 -269.29296875 212.81884766 C-269.44281385 192.15146161 -264.33369421 174.82281008 -249.68139648 159.76660156 C-249.23223877 159.3125293 -248.78308105 158.85845703 -248.3203125 158.390625 C-245.8894683 156.03078455 -245.8894683 156.03078455 -244 153 C-243.34 153 -242.68 153 -242 153 C-241.7525 152.38125 -241.505 151.7625 -241.25 151.125 C-239.76259631 148.59641373 -238.56321991 148.28160996 -236 147 C-235.30952811 145.67883733 -234.64815015 144.34243198 -234 143 C-232.21172814 140.26596773 -230.39092252 137.55624738 -228.55859375 134.8515625 C-225.92630407 130.03559392 -225.87734399 125.0729829 -225.7890625 119.66796875 C-225.01096269 83.81533895 -225.01096269 83.81533895 -217 68 C-216.58105469 67.16339844 -216.16210938 66.32679687 -215.73046875 65.46484375 C-209.46205394 54.06608369 -200.44529061 45.08958164 -189 39 C-188.00355469 38.45601562 -187.00710937 37.91203125 -185.98046875 37.3515625 C-177.48198704 33.05516608 -169.33738731 31.39709024 -160 30 C-159.06776611 29.82815186 -158.13553223 29.65630371 -157.17504883 29.47924805 C-153.93608378 28.99035236 -150.84420421 28.84178139 -147.5703125 28.7890625 C-146.36246094 28.76070312 -145.15460938 28.73234375 -143.91015625 28.703125 C-141.39467748 28.65120593 -138.87902993 28.60688621 -136.36328125 28.5703125 C-121.22922369 28.18349953 -113.11724709 22.42827918 -102.77734375 11.78125 C-100.65894965 9.65820009 -98.35870344 7.84871351 -96 6 C-94.8553125 4.824375 -94.8553125 4.824375 -93.6875 3.625 C-90.36574014 0.38049037 -86.74746676 -2.27321504 -83 -5 C-82.44183594 -5.48984375 -81.88367188 -5.9796875 -81.30859375 -6.484375 C-77.83607117 -8.76413602 -74.0611843 -9.8595708 -70.125 -11.125 C-68.93970703 -11.52138672 -68.93970703 -11.52138672 -67.73046875 -11.92578125 C-44.52086561 -19.53358794 -19.16206409 -14.94640999 0 0 Z M-73.046875 44.03125 C-94.18822735 65.34173317 -115.48430466 70.9916275 -144.56835938 71.4296875 C-156.36760821 71.7383327 -166.53147519 73.21904417 -175 82 C-183.40432739 92.86369899 -182.23633107 104.76199973 -182.51757812 117.93945312 C-183.27102035 145.0775892 -192.84835028 164.35098156 -212.10839844 183.03344727 C-220.01838073 190.71111632 -226.17292035 196.78629836 -226.75 208.375 C-225.94218502 223.89436851 -216.36323701 232.37027579 -205.60058594 242.38110352 C-204 244 -204 244 -202 247 C-201.34 247 -200.68 247 -200 247 C-199.73832031 247.556875 -199.47664063 248.11375 -199.20703125 248.6875 C-197.86478049 251.25906133 -196.30391869 253.59150031 -194.6875 256 C-184.25683631 272.41582622 -182.69221292 288.97530759 -182.37792969 307.9765625 C-182.15669347 319.09446142 -181.40808638 329.17722772 -174 338 C-166.41167414 344.05065851 -158.41857649 346.29336387 -148.78515625 346.23828125 C-147.19465312 346.25372102 -145.6041582 346.27002607 -144.01367188 346.28710938 C-141.55246547 346.30340231 -139.09186999 346.31258551 -136.63061523 346.30541992 C-115.39827797 346.28179742 -98.51003536 352.46758099 -82 366 C-80.89785156 367.12728516 -80.89785156 367.12728516 -79.7734375 368.27734375 C-78.17296141 370.23225415 -78.17296141 370.23225415 -76 370 C-76 370.66 -76 371.32 -76 372 C-75.34 372 -74.68 372 -74 372 C-74 372.66 -74 373.32 -74 374 C-73.34 374 -72.68 374 -72 374 C-72 374.66 -72 375.32 -72 376 C-70.66666667 377.66666667 -70.66666667 377.66666667 -69 379 C-68.34 379 -67.68 379 -67 379 C-67 379.66 -67 380.32 -67 381 C-66.34 381 -65.68 381 -65 381 C-65 381.66 -65 382.32 -65 383 C-57.16674867 389.49993195 -49.23419206 390.27985216 -39.44140625 389.77734375 C-30.79078169 387.82334342 -25.09106632 382.56628892 -19.1875 376.25 C-10.43783103 367.20870962 -1.32786561 359.65404811 10 354 C11.15435547 353.35417969 11.15435547 353.35417969 12.33203125 352.6953125 C26.31113723 345.4373435 42.29403622 345.62289425 57.66015625 346.11010742 C64.28687165 346.26456836 68.97793591 345.81209488 75 343 C76.25683594 342.48759766 76.25683594 342.48759766 77.5390625 341.96484375 C83.93492754 338.81482033 87.21770412 334.52243133 90 328 C91.54576335 322.61677473 92.28173849 317.73747264 92.2734375 312.125 C92.2937519 310.62889911 92.31460311 309.13280544 92.3359375 307.63671875 C92.35830429 305.33148068 92.37493178 303.02653222 92.38085938 300.72119141 C92.49442839 274.39021585 101.5024483 255.92061705 119.71875 237.20703125 C122 235 122 235 124.3125 233.3125 C124.869375 232.879375 125.42625 232.44625 126 232 C126 231.34 126 230.68 126 230 C126.66 230 127.32 230 128 230 C133.7229439 222.90031016 137.25130455 215.69098372 136.90625 206.50390625 C135.30430135 194.83516663 126.53726486 187.37508844 118.55761719 179.52856445 C103.1606813 164.35940522 93.01941984 147.03626347 92.7890625 125.01171875 C92.76099076 123.48501538 92.73232627 121.95832281 92.703125 120.43164062 C92.66201625 118.06225942 92.62506223 115.6930793 92.59863281 113.32348633 C92.43760514 99.99011781 91.80848842 88.94608244 82 79 C73.08539501 71.5560325 62.50563145 71.71805732 51.375 71.5 C23.92357038 70.69725392 4.31249385 65.08651814 -15.12890625 44.74609375 C-23.76208563 35.75373306 -31.75947553 28.61603496 -44.75 27.75 C-56.99287644 28.00266724 -64.92384783 35.7163403 -73.046875 44.03125 Z " fill="#ffffff" transform="translate(295,41)"/>
<path d="M0 0 C7.3176493 4.00399679 10.8485302 7.82536194 13.3125 15.8125 C14.20528826 21.95041932 12.3089421 27.47213615 9.3125 32.8125 C7.70205119 34.53354915 6.02991698 36.19817833 4.3125 37.8125 C3.4875 38.6375 2.6625 39.4625 1.8125 40.3125 C-5.6875 47.8125 -5.6875 47.8125 -8.35546875 50.4453125 C-10.7719467 52.81901955 -10.7719467 52.81901955 -13 55.6875 C-15.01066619 58.15973422 -17.19729773 60.18691461 -19.625 62.25 C-22.22732775 64.46319463 -24.52015328 66.67270713 -26.6875 69.3125 C-29.41215261 72.6294684 -32.48357522 75.29098806 -35.75 78.0625 C-37.58099314 79.71630025 -39.12357986 81.40859722 -40.6875 83.3125 C-43.41215261 86.6294684 -46.48357522 89.29098806 -49.75 92.0625 C-51.58099314 93.71630025 -53.12357986 95.40859722 -54.6875 97.3125 C-57.41215261 100.6294684 -60.48357522 103.29098806 -63.75 106.0625 C-65.58099314 107.71630025 -67.12357986 109.40859722 -68.6875 111.3125 C-71.40944506 114.60981556 -74.41893734 117.35466182 -77.6796875 120.11328125 C-78.97691162 121.21112656 -80.25484909 122.33236708 -81.5078125 123.48046875 C-86.61824207 128.12110546 -91.45995154 130.89449712 -98.5 131.3125 C-109.7387599 130.75218641 -117.08611117 123.15705425 -124.5859375 115.54296875 C-125.59259194 114.53714528 -126.60006483 113.53214035 -127.60830688 112.52790833 C-129.70544099 110.43361341 -131.79363498 108.33091831 -133.87548828 106.22143555 C-136.52967132 103.53310691 -139.20350797 100.86539163 -141.88413048 98.20345592 C-143.96266928 96.13553761 -146.03127174 94.05790223 -148.09700394 91.97719765 C-149.0789114 90.9901494 -150.06359601 90.00585502 -151.05121994 89.0245266 C-157.84718995 82.25566877 -164.15031892 75.66155873 -164.9375 65.625 C-164.50671278 59.05549495 -162.40159594 53.52659594 -157.6875 48.8125 C-151.66801378 44.47846992 -145.85937193 43.19333223 -138.46875 44.078125 C-128.58670708 46.58444023 -120.18986606 55.65410216 -113.9921875 63.31640625 C-112.73847432 64.94541881 -112.73847432 64.94541881 -110.6875 65.8125 C-110.6875 66.4725 -110.6875 67.1325 -110.6875 67.8125 C-110.0275 67.8125 -109.3675 67.8125 -108.6875 67.8125 C-107.0625 69.1875 -107.0625 69.1875 -105.6875 70.8125 C-105.6875 71.4725 -105.6875 72.1325 -105.6875 72.8125 C-105.089375 73.080625 -104.49125 73.34875 -103.875 73.625 C-101.70433117 74.80336308 -100.37932788 76.04310981 -98.6875 77.8125 C-90.79164484 70.96608485 -83.45994219 63.64558981 -76.14444351 56.191782 C-72.65419583 52.63973287 -69.14776725 49.10368445 -65.64453125 45.56445312 C-61.21713399 41.08922302 -56.79448015 36.60956014 -52.38720703 32.11450195 C-48.79678926 28.45341922 -45.19153631 24.80752567 -41.57629013 21.17096519 C-40.21303028 19.79422332 -38.8551639 18.4121167 -37.50314713 17.02433205 C-15.91077255 -5.12380811 -15.91077255 -5.12380811 0 0 Z " fill="#ffffff" transform="translate(325.6875,185.1875)"/>
<path d="M0 0 C0.66 0.33 1.32 0.66 2 1 C-0.64 3.64 -3.28 6.28 -6 9 C-6 6 -6 6 -3.5625 3.375 C-2.716875 2.59125 -1.87125 1.8075 -1 1 C-0.67 0.67 -0.34 0.34 0 0 Z " fill="#ffffff" transform="translate(171,232)"/>
</svg>
